<?xml version="1.0" encoding="iso-8859-1"?>
<!-- Generator: Adobe Illustrator 19.0.0, SVG Export Plug-In . SVG Version: 6.00 Build 0)  -->
<svg xmlns="http://www.w3.org/2000/svg" xmlns:xlink="http://www.w3.org/1999/xlink" version="1.1" id="Layer_1" x="0px" y="0px" viewBox="0 0 511.998 511.998" style="enable-background:new 0 0 511.998 511.998;" xml:space="preserve" width="112px" height="112px">
<g>
	<g>
		<path d="M410.777,12.522c-0.202-0.981-0.497-1.961-0.886-2.911c-0.389-0.934-0.873-1.837-1.432-2.677    c-0.56-0.856-1.214-1.65-1.93-2.366c-0.716-0.716-1.51-1.37-2.367-1.946c-0.841-0.56-1.759-1.043-2.691-1.432    c-0.935-0.389-1.914-0.685-2.911-0.887c-2.008-0.405-4.078-0.405-6.086,0c-0.981,0.202-1.961,0.498-2.911,0.887    c-0.934,0.389-1.837,0.872-2.677,1.432c-0.856,0.576-1.65,1.23-2.367,1.946c-0.716,0.716-1.37,1.51-1.946,2.366    c-0.559,0.841-1.043,1.743-1.432,2.677c-0.389,0.949-0.683,1.93-0.886,2.911c-0.202,1.012-0.296,2.039-0.296,3.051    c0,1.012,0.095,2.039,0.296,3.035s0.497,1.977,0.886,2.911c0.389,0.949,0.873,1.852,1.432,2.693    c0.576,0.856,1.23,1.65,1.946,2.366c0.718,0.716,1.511,1.37,2.367,1.93c0.841,0.56,1.743,1.043,2.677,1.432    c0.949,0.389,1.93,0.685,2.911,0.887c1.012,0.202,2.041,0.311,3.051,0.311c1.012,0,2.041-0.109,3.035-0.311    c0.996-0.202,1.977-0.498,2.911-0.887c0.934-0.389,1.851-0.872,2.691-1.432c0.858-0.56,1.651-1.214,2.367-1.93    c0.716-0.716,1.37-1.51,1.93-2.366c0.559-0.84,1.043-1.743,1.432-2.693c0.389-0.934,0.683-1.914,0.886-2.911    c0.202-0.996,0.311-2.023,0.311-3.035C411.089,14.561,410.98,13.534,410.777,12.522z" fill="#472800"/>
	</g>
</g>
<g>
	<g>
		<path d="M411.938,337.234h42.493c16.402,0,30.453-12.254,32.683-28.504l14.461-105.371c1.838-13.392-4.554-26.389-16.282-33.109    c-11.733-6.721-26.175-5.664-36.798,2.696l-5.756,4.528l2.71-15.319c2.497-14.105-1.351-28.49-10.555-39.465    c-9.203-10.975-22.697-17.269-37.021-17.269h-45.717l29.548-42.609c4.897-7.065,3.144-16.762-3.922-21.66    c-7.062-4.9-16.762-3.144-21.66,3.921l-41.849,60.348H106.345c-14.324,0-27.817,6.294-37.021,17.269    c-9.203,10.975-13.051,25.36-10.555,39.465l26.305,148.68c6.679,37.756,27.115,70.029,55.608,92.063H25.674    c-5.283,0-10.203,2.679-13.07,7.113c-2.867,4.434-3.29,10.022-1.124,14.84c23.827,52.941,76.733,87.149,134.787,87.149h211.685    c58.054,0,110.96-34.208,134.787-87.149c2.168-4.816,1.745-10.404-1.124-14.84c-2.869-4.436-7.789-7.113-13.07-7.113h-115.01    C385.125,386.201,402.081,363.621,411.938,337.234z M434.598,223.483l33.144-26.073c0.346-0.269,0.987-0.775,2.075-0.151    c1.088,0.624,0.977,1.432,0.918,1.866l-14.461,105.371c-0.126,0.917-0.918,1.608-1.843,1.608h-34.45L434.598,223.483z     M451.411,434.028c-21.739,29.05-56.261,46.842-93.459,46.842H146.267c-37.197,0-71.72-17.792-93.459-46.842h179.103    c0.023,0,0.045,0.002,0.069,0.002h40.258c0.023,0,0.045-0.002,0.069-0.002H451.411z M272.306,402.897h-40.395v0.002    c-57.338-0.033-106.194-41.021-116.185-97.487l-17.039-96.307h200.55c8.595,0,15.565-6.968,15.565-15.565    s-6.97-15.565-15.565-15.565H93.18l-3.759-21.244c-0.9-5.091,0.433-10.077,3.756-14.039c3.322-3.961,7.999-6.142,13.168-6.142    h291.527c5.169,0,9.846,2.181,13.168,6.142c3.323,3.961,4.655,8.948,3.756,14.039l-26.305,148.68    C378.5,361.876,329.643,402.864,272.306,402.897z" fill="#472800"/>
	</g>
</g>
<g>
	<g>
		<path d="M360.908,190.506c-0.202-0.996-0.497-1.977-0.886-2.926c-0.389-0.934-0.873-1.837-1.432-2.677    c-0.576-0.856-1.23-1.65-1.946-2.366c-0.716-0.716-1.511-1.37-2.367-1.93c-0.841-0.576-1.743-1.043-2.677-1.432    c-0.949-0.389-1.914-0.7-2.911-0.887c-2.008-0.405-4.078-0.405-6.086,0c-0.996,0.187-1.977,0.498-2.911,0.887    c-0.948,0.389-1.851,0.856-2.691,1.432c-0.856,0.56-1.651,1.214-2.367,1.93c-2.893,2.895-4.56,6.895-4.56,11.004    c0,1.012,0.109,2.039,0.311,3.035c0.202,0.996,0.497,1.977,0.886,2.911c0.389,0.949,0.873,1.852,1.434,2.693    c0.559,0.856,1.213,1.65,1.928,2.366c0.716,0.716,1.511,1.37,2.367,1.93c0.84,0.56,1.743,1.043,2.691,1.432    c0.935,0.389,1.914,0.7,2.911,0.887c0.998,0.202,2.023,0.311,3.035,0.311c1.027,0,2.039-0.109,3.051-0.311    c0.996-0.187,1.961-0.498,2.911-0.887c0.934-0.389,1.837-0.872,2.677-1.432c0.856-0.56,1.651-1.214,2.367-1.93    c0.716-0.716,1.371-1.51,1.947-2.366c0.559-0.84,1.043-1.743,1.432-2.693c0.389-0.934,0.683-1.914,0.886-2.911    c0.204-0.996,0.296-2.023,0.296-3.035C361.203,192.529,361.11,191.502,360.908,190.506z" fill="#472800"/>
	</g>
</g>
<g>
</g>
<g>
</g>
<g>
</g>
<g>
</g>
<g>
</g>
<g>
</g>
<g>
</g>
<g>
</g>
<g>
</g>
<g>
</g>
<g>
</g>
<g>
</g>
<g>
</g>
<g>
</g>
<g>
</g>
</svg>
